<svg xmlns="http://www.w3.org/2000/svg" version="1.1" xmlns:xlink="http://www.w3.org/1999/xlink" xmlns:svgjs="http://svgjs.dev/svgjs" width="2000" height="515" viewBox="0 0 2000 515"><g transform="matrix(1,0,0,1,-1.2112696095522324,-1.472687502857184)"><svg viewBox="0 0 396 102" data-background-color="#edffde" preserveAspectRatio="xMidYMid meet" height="515" width="2000" xmlns="http://www.w3.org/2000/svg" xmlns:xlink="http://www.w3.org/1999/xlink"><g id="tight-bounds" transform="matrix(1,0,0,1,0.24008861730862918,0.2916779131872431)"><svg viewBox="0 0 395.52 101.41654531180643" height="101.41654531180643" width="395.52"><g><svg viewBox="0 0 395.52 101.41654531180643" height="101.41654531180643" width="395.52"><g><svg viewBox="0 0 395.52 101.41654531180643" height="101.41654531180643" width="395.52"><g id="textblocktransform"><svg viewBox="0 0 395.52 101.41654531180643" height="101.41654531180643" width="395.52" id="textblock"><g><svg viewBox="0 0 395.52 101.41654531180643" height="101.41654531180643" width="395.52"><path d="M394.594 21.752C392.735 11.225 387.435 8.298 387.435 8.298 371.165-2.544 350.86-0.207 332.619 1.351 300.414 1.414 268.339 3.73 236.208 4.972 168.767 5.161 100.749 2.045 33.643 9.73 27.339 12.088-6.54 10.193 1.121 23.099 3.129 28.468 10.456 34.426 10.232 39.353 11.236 40.216 12.631 38.237 13.226 39.479 15.309 42.827 18.711 41.248 21.501 43.227 17.614 48.512 20.403 52.912 23.062 57.523 18.377 58.723 12.371 58.154 9.675 62.133 9.396 65.018 7.89 64.47 6.235 64.344 5.026 64.26 2.59 64.576 2.999 65.481 4.394 68.576-1.594 70.366 2.162 73.397-0.422 76.682 3.948 79.524 3.353 83.082 3.278 83.798 3.687 84.409 4.338 84.577 7.22 85.482 3.018 87.251 3.464 89.167 33.029 102.262 65.104 93.209 95.394 99.231 103.259 95.02 97.346 100.725 100.489 99.841 102.943 98.81 104.728 103.084 107.499 100.662 107.927 99.968 107.276 98.325 108.8 98.641 109.6 98.81 110.307 98.767 110.418 97.799 110.586 96.346 109.117 97.252 108.726 96.494 112.947 92.662 111.906 101.778 115.866 101.399 115.68 100.283 114.528 98.683 116.889 98.894 119.232 97.294 119.306 95.967 121.389 99.568 121.463 100.347 121.835 100.894 122.43 101.273 128.938 97.357 135.409 102.662 142.233 100.894 146.417 98.957 150.433 101.947 154.672 101.21 156.16 100.62 157.666 99.568 159.098 101.336 176.632 101.715 195.319 100.136 211.943 101.399 256.364 99.041 303.836 102.368 350.674 99.252 361.719 98.052 373.192 96.346 383.958 94.978 383.958 94.978 392.679 91.23 392.679 74.387S394.538 59.649 394.817 46.238C395.096 32.826 396.398 32.279 394.538 21.752Z" opacity="1" fill="#ffffff" data-fill-palette-color="tertiary"></path><g transform="matrix(1,0,0,1,55.76832,26.230666666666668)"><svg width="283.98335999999995" viewBox="2.6 -42.35 394.71995806499586 68.05" height="48.9552119784731" data-palette-color="#000000"><g transform="matrix(1,0,0,1,0,0)"><g><svg width="13.590218064995872" viewBox="3.16 -36.36 73.79 36.36" height="6.697008324617793" data-palette-color="#000000" id="scriptelement" x="380.9151090324979" y="-12.958244162308898"><path d="M3.16 0L3.16-36.36 12.64-36.36 22.66-11.93 23.08-11.93 33.1-36.36 42.58-36.36 42.58 0 35.12 0 35.12-23.67 34.82-23.67 25.41-0.18 20.33-0.18 10.92-23.76 10.62-23.76 10.62 0 3.16 0ZM64.43 0L48.9 0 48.9-36.36 63.46-36.36Q67.47-36.36 70.15-35.17 72.83-33.98 74.18-31.88 75.53-29.78 75.53-27.04L75.53-27.04Q75.53-24.91 74.68-23.3 73.83-21.7 72.34-20.68 70.86-19.66 68.96-19.23L68.96-19.23 68.96-18.87Q71.04-18.79 72.86-17.7 74.68-16.62 75.81-14.68 76.95-12.73 76.95-10.05L76.95-10.05Q76.95-7.16 75.52-4.89 74.09-2.63 71.3-1.31 68.52 0 64.43 0L64.43 0ZM56.58-15.94L56.58-6.29 62.85-6.29Q66.07-6.29 67.54-7.52 69.01-8.75 69.01-10.81L69.01-10.81Q69.01-12.32 68.29-13.48 67.56-14.63 66.22-15.29 64.88-15.94 63.03-15.94L63.03-15.94 56.58-15.94ZM56.58-30.15L56.58-21.15 62.28-21.15Q63.86-21.15 65.1-21.71 66.33-22.27 67.05-23.3 67.77-24.33 67.77-25.76L67.77-25.76Q67.77-27.73 66.38-28.94 64.98-30.15 62.43-30.15L62.43-30.15 56.58-30.15Z" opacity="1" transform="matrix(1,0,0,1,0,0)" fill="#000000" class="undefined-123" data-fill-palette-color="quaternary" id="tk-123"></path></svg></g></g><path d="M378.1-9.61C378.1-14.917 382.403-19.219 387.71-19.219 393.018-19.219 397.32-14.917 397.32-9.61 397.32-4.302 393.018 0 387.71 0 382.403 0 378.1-4.302 378.1-9.61ZM387.71-0.4C392.797-0.4 396.92-4.523 396.92-9.61 396.92-14.696 392.797-18.819 387.71-18.819 382.624-18.819 378.5-14.696 378.5-9.61 378.5-4.523 382.624-0.4 387.71-0.4Z" fill="#000000" id="scriptcircle" data-fill-palette-color="quaternary"></path><path d="M14.55 0.65L14.55 0.65Q9.7 0.6 6.65-1.53 3.6-3.65 2.6-7.2L2.6-7.2Q3.15-8.15 4.38-8.72 5.6-9.3 6.7-9.2L6.7-9.2Q7.6-6.5 9.7-5.1 11.8-3.7 14.8-3.75L14.8-3.75Q18-3.8 19.95-5.43 21.9-7.05 21.9-9.85L21.9-9.85Q21.9-14.1 17.45-15.35L17.45-15.35 10.8-17.2Q7.3-18.2 5.3-20.63 3.3-23.05 3.3-26.4L3.3-26.4Q3.3-29.4 4.83-31.75 6.35-34.1 9.03-35.43 11.7-36.75 15.15-36.75L15.15-36.75Q19-36.75 22.08-35.13 25.15-33.5 26.4-30.85L26.4-30.85Q25.95-30.05 24.93-29.28 23.9-28.5 22.7-28.1L22.7-28.1Q20.25-32.35 15-32.35L15-32.35Q11.9-32.35 9.95-30.78 8-29.2 8-26.7L8-26.7Q8-22.7 13.15-21.25L13.15-21.25 19.05-19.65Q22.6-18.7 24.6-16.13 26.6-13.55 26.6-9.9L26.6-9.9Q26.6-6.7 25.03-4.3 23.45-1.9 20.73-0.63 18 0.65 14.55 0.65ZM28.8 0.7L28.8 0.7Q28.15 0.7 27.75 0.1 27.35-0.5 27.35-1.45L27.35-1.45Q27.35-3.6 29.15-3.6L29.15-3.6Q30.6-3.6 32.1-4.08 33.6-4.55 35.6-5.7L35.6-5.7Q33.65-9.1 33.65-13.7L33.65-13.7Q33.65-16.8 34.8-19.18 35.95-21.55 38-22.93 40.05-24.3 42.65-24.3L42.65-24.3Q44.85-24.3 46.55-23.28 48.25-22.25 49.2-20.45 50.15-18.65 50.15-16.3L50.15-16.3Q50.15-13.1 48.27-10.45 46.4-7.8 41.95-4.7L41.95-4.7Q43.55-3.55 46.25-3.55L46.25-3.55Q46.95-3.55 47.35-2.95 47.75-2.35 47.75-1.35L47.75-1.35Q47.75-0.4 47.3 0.15 46.85 0.7 46 0.7L46 0.7Q43.6 0.7 41.5-0.1 39.4-0.9 38-2.3L38-2.3Q33.2 0.7 28.8 0.7ZM38-14.1L38-14.1Q38-10.15 39.4-7.8L39.4-7.8Q42.65-10.05 44.22-12.2 45.8-14.35 45.8-16.3L45.8-16.3Q45.8-18.1 44.92-19.13 44.05-20.15 42.5-20.15L42.5-20.15Q40.55-20.15 39.27-18.4 38-16.65 38-14.1ZM50.9 0.7L50.9 0.7Q50.25 0.7 49.84 0.1 49.45-0.5 49.45-1.45L49.45-1.45Q49.45-3.6 51.25-3.6L51.25-3.6Q53.45-3.6 55.17-5.43 56.9-7.25 57.92-10.4 58.95-13.55 58.95-17.4L58.95-17.4Q58.95-18.3 58.84-19.05 58.75-19.8 58.59-20.3L58.59-20.3Q58.15-20.75 57.62-21.75 57.09-22.75 56.72-23.88 56.34-25 56.34-25.7L56.34-25.7Q56.95-26.65 58.27-27.18 59.59-27.7 61.2-27.45L61.2-27.45Q62.15-25.7 62.75-23.05L62.75-23.05Q64.25-23.1 66.8-23.7L66.8-23.7Q68.4-24.05 69.37-24.18 70.34-24.3 71.05-24.3L71.05-24.3Q73.75-24.3 75.3-22.28 76.84-20.25 76.84-16.8L76.84-16.8 76.84-8.75Q76.84-6 77.57-4.8 78.3-3.6 79.9-3.6L79.9-3.6Q80.59-3.6 80.97-3 81.34-2.4 81.34-1.4L81.34-1.4Q81.34-0.6 80.92 0.05 80.5 0.7 79.55 0.7L79.55 0.7Q72.3 0.7 72.3-8.2L72.3-8.2 72.3-15.95Q72.3-18.2 71.8-19.1 71.3-20 70-20L70-20Q69.55-20 69-19.9 68.45-19.8 67.05-19.5L67.05-19.5Q64.59-19 63.34-18.9L63.34-18.9Q63.4-18.1 63.4-17.3L63.4-17.3Q63.4-11.9 61.84-7.85 60.3-3.8 57.47-1.55 54.65 0.7 50.9 0.7ZM79.54 0.7L79.54 0.7Q78.89 0.7 78.49 0.1 78.09-0.5 78.09-1.45L78.09-1.45Q78.09-3.6 79.89-3.6L79.89-3.6Q81.49-3.6 82.77-5.23 84.04-6.85 84.99-10.65L84.99-10.65 86.49-16.5Q88.59-24.3 94.49-24.3L94.49-24.3Q97.14-24.3 99.02-22.23 100.89-20.15 100.89-16.6L100.89-16.6 100.89-9.05Q100.89-3.6 104.09-3.6L104.09-3.6Q106.14-3.6 107.89-5.25 109.64-6.9 110.72-9.58 111.79-12.25 111.79-15.3L111.79-15.3Q111.79-15.7 111.79-16.1L111.79-16.1Q109.44-17 108.14-18.5L108.14-18.5Q108.29-20.1 108.99-21.43 109.69-22.75 110.72-23.53 111.74-24.3 112.69-24.3L112.69-24.3Q114.34-24.3 115.37-21.88 116.39-19.45 116.39-15.7L116.39-15.7Q116.39-11.05 114.72-7.33 113.04-3.6 110.14-1.45 107.24 0.7 103.59 0.7L103.59 0.7Q100.24 0.7 98.29-1.68 96.34-4.05 96.34-8.1L96.34-8.1 96.34-15.95Q96.34-18.15 95.69-19.07 95.04-20 94.09-20L94.09-20Q93.04-20 92.29-19.05 91.54-18.1 90.99-16L90.99-16 89.14-8.8Q87.84-3.85 85.54-1.58 83.24 0.7 79.54 0.7ZM119.59 0.7L119.59 0.7Q118.94 0.7 118.54 0.1 118.14-0.5 118.14-1.45L118.14-1.45Q118.14-3.6 119.94-3.6L119.94-3.6Q121.39-3.6 122.89-4.08 124.39-4.55 126.39-5.7L126.39-5.7Q124.44-9.1 124.44-13.7L124.44-13.7Q124.44-16.8 125.59-19.18 126.74-21.55 128.79-22.93 130.84-24.3 133.44-24.3L133.44-24.3Q135.64-24.3 137.34-23.28 139.04-22.25 139.99-20.45 140.94-18.65 140.94-16.3L140.94-16.3Q140.94-13.1 139.06-10.45 137.19-7.8 132.74-4.7L132.74-4.7Q134.34-3.55 137.04-3.55L137.04-3.55Q137.74-3.55 138.14-2.95 138.54-2.35 138.54-1.35L138.54-1.35Q138.54-0.4 138.09 0.15 137.64 0.7 136.79 0.7L136.79 0.7Q134.39 0.7 132.29-0.1 130.19-0.9 128.79-2.3L128.79-2.3Q123.99 0.7 119.59 0.7ZM128.79-14.1L128.79-14.1Q128.79-10.15 130.19-7.8L130.19-7.8Q133.44-10.05 135.02-12.2 136.59-14.35 136.59-16.3L136.59-16.3Q136.59-18.1 135.72-19.13 134.84-20.15 133.29-20.15L133.29-20.15Q131.34-20.15 130.06-18.4 128.79-16.65 128.79-14.1ZM141.69 0.7L141.69 0.7Q141.04 0.7 140.64 0.1 140.24-0.5 140.24-1.45L140.24-1.45Q140.24-3.6 142.04-3.6L142.04-3.6Q144.24-3.6 145.96-5.43 147.69-7.25 148.71-10.4 149.74-13.55 149.74-17.4L149.74-17.4Q149.74-18.3 149.64-19.05 149.54-19.8 149.39-20.3L149.39-20.3Q148.94-20.75 148.41-21.75 147.89-22.75 147.51-23.88 147.14-25 147.14-25.7L147.14-25.7Q147.74-26.65 149.06-27.18 150.39-27.7 151.99-27.45L151.99-27.45Q152.94-25.7 153.54-23.05L153.54-23.05Q155.04-23.1 157.59-23.7L157.59-23.7Q159.19-24.05 160.16-24.18 161.14-24.3 161.84-24.3L161.84-24.3Q164.54-24.3 166.09-22.28 167.64-20.25 167.64-16.8L167.64-16.8 167.64-8.75Q167.64-6 168.36-4.8 169.09-3.6 170.69-3.6L170.69-3.6Q171.39-3.6 171.76-3 172.14-2.4 172.14-1.4L172.14-1.4Q172.14-0.6 171.71 0.05 171.29 0.7 170.34 0.7L170.34 0.7Q163.09 0.7 163.09-8.2L163.09-8.2 163.09-15.95Q163.09-18.2 162.59-19.1 162.09-20 160.79-20L160.79-20Q160.34-20 159.79-19.9 159.24-19.8 157.84-19.5L157.84-19.5Q155.39-19 154.14-18.9L154.14-18.9Q154.19-18.1 154.19-17.3L154.19-17.3Q154.19-11.9 152.64-7.85 151.09-3.8 148.26-1.55 145.44 0.7 141.69 0.7ZM193.18 0.35L193.18 0.35Q191.93 0.35 190.88 0L190.88 0 190.88-36.1Q191.93-36.45 193.23-36.45L193.23-36.45Q193.68-36.45 194.16-36.4 194.63-36.35 195.13-36.2L195.13-36.2 214.63-8.65 214.63-36.1Q215.68-36.45 216.98-36.45L216.98-36.45Q218.08-36.45 219.28-36.1L219.28-36.1 219.28 0Q218.43 0.35 217.38 0.35L217.38 0.35Q216.23 0.35 215.23 0L215.23 0 195.53-27.85 195.53 0Q194.33 0.35 193.18 0.35ZM224.23-3.6L224.23-3.6Q225.88-3.6 227.46-5.18 229.03-6.75 230.13-9.4L230.13-9.4Q229.93-10.6 229.93-11.85L229.93-11.85Q229.93-15.45 231.48-18.25 233.03-21.05 235.71-22.68 238.38-24.3 241.73-24.3L241.73-24.3Q245.08-24.3 247.73-22.68 250.38-21.05 251.91-18.25 253.43-15.45 253.43-11.85L253.43-11.85Q253.43-8.25 251.91-5.4 250.38-2.55 247.76-0.93 245.13 0.7 241.73 0.7L241.73 0.7Q238.68 0.7 236.21-0.63 233.73-1.95 232.13-4.25L232.13-4.25Q229.03 0.7 223.88 0.7L223.88 0.7Q223.23 0.7 222.83 0.1 222.43-0.5 222.43-1.45L222.43-1.45Q222.43-3.6 224.23-3.6ZM241.68-3.6L241.68-3.6Q244.88-3.6 246.81-5.85 248.73-8.1 248.73-11.85L248.73-11.85Q248.73-13.7 248.18-15.25L248.18-15.25Q245.18-15.35 242.76-16.45 240.33-17.55 238.93-19.45L238.93-19.45Q236.93-18.6 235.78-16.57 234.63-14.55 234.63-11.75L234.63-11.75Q234.63-8.1 236.56-5.85 238.48-3.6 241.68-3.6ZM255.78-3.6L255.78-3.6Q257.48-3.6 259.1-5.28 260.73-6.95 261.83-9.8L261.83-9.8Q261.78-10.5 261.78-11.2L261.78-11.2Q261.78-15 263.28-17.95 264.78-20.9 267.35-22.6 269.93-24.3 273.23-24.3L273.23-24.3Q274.98-24.3 276.68-23.63 278.38-22.95 279.53-21.8L279.53-21.8 279.53-42Q280.48-42.35 281.83-42.35L281.83-42.35Q282.98-42.35 284.08-42L284.08-42 284.08-8.75Q284.08-6 284.8-4.8 285.53-3.6 287.13-3.6L287.13-3.6Q287.83-3.6 288.2-3 288.58-2.4 288.58-1.4L288.58-1.4Q288.58-0.6 288.15 0.05 287.73 0.7 286.78 0.7L286.78 0.7Q282.03 0.7 280.38-3.2L280.38-3.2Q278.93-1.35 276.88-0.33 274.83 0.7 272.33 0.7L272.33 0.7Q269.43 0.7 267.2-0.58 264.98-1.85 263.58-4.1L263.58-4.1Q260.48 0.7 255.43 0.7L255.43 0.7Q254.78 0.7 254.38 0.1 253.98-0.5 253.98-1.45L253.98-1.45Q253.98-3.6 255.78-3.6ZM266.43-11.2L266.43-11.2Q266.43-7.65 268.05-5.63 269.68-3.6 272.53-3.6L272.53-3.6Q275.68-3.6 277.6-5.75 279.53-7.9 279.53-11.4L279.53-11.4 279.53-17Q278.53-18.35 276.98-19.18 275.43-20 273.78-20L273.78-20Q271.63-20 269.98-18.85 268.33-17.7 267.38-15.73 266.43-13.75 266.43-11.2ZM286.78 0.7L286.78 0.7Q286.13 0.7 285.73 0.1 285.33-0.5 285.33-1.45L285.33-1.45Q285.33-3.6 287.13-3.6L287.13-3.6Q288.58-3.6 290.08-4.08 291.58-4.55 293.58-5.7L293.58-5.7Q291.63-9.1 291.63-13.7L291.63-13.7Q291.63-16.8 292.78-19.18 293.93-21.55 295.98-22.93 298.03-24.3 300.63-24.3L300.63-24.3Q302.83-24.3 304.53-23.28 306.23-22.25 307.18-20.45 308.13-18.65 308.13-16.3L308.13-16.3Q308.13-13.1 306.25-10.45 304.38-7.8 299.93-4.7L299.93-4.7Q301.53-3.55 304.23-3.55L304.23-3.55Q304.93-3.55 305.33-2.95 305.73-2.35 305.73-1.35L305.73-1.35Q305.73-0.4 305.28 0.15 304.83 0.7 303.98 0.7L303.98 0.7Q301.58 0.7 299.48-0.1 297.38-0.9 295.98-2.3L295.98-2.3Q291.18 0.7 286.78 0.7ZM295.98-14.1L295.98-14.1Q295.98-10.15 297.38-7.8L297.38-7.8Q300.63-10.05 302.2-12.2 303.78-14.35 303.78-16.3L303.78-16.3Q303.78-18.1 302.9-19.13 302.03-20.15 300.48-20.15L300.48-20.15Q298.53-20.15 297.25-18.4 295.98-16.65 295.98-14.1ZM316.27 0.7L316.27 0.7Q314.87 0.7 313.87-0.33 312.87-1.35 312.87-2.75L312.87-2.75Q312.87-4.15 313.87-5.15 314.87-6.15 316.27-6.15L316.27-6.15Q317.67-6.15 318.7-5.15 319.72-4.15 319.72-2.75L319.72-2.75Q319.72-1.35 318.7-0.33 317.67 0.7 316.27 0.7ZM323.37 0.7L323.37 0.7Q322.72 0.7 322.3 0.08 321.87-0.55 321.87-1.45L321.87-1.45Q321.87-2.45 322.4-3.03 322.92-3.6 323.82-3.6L323.82-3.6Q325.62-3.6 327.12-5.28 328.62-6.95 330.32-10.8L330.32-10.8Q331.87-14.35 332.97-17.35 334.07-20.35 335.17-23.95L335.17-23.95Q336.37-24.25 337.62-24.1 338.87-23.95 339.62-23.4L339.62-23.4 339.62 14Q339.62 25.7 331.07 25.7L331.07 25.7Q327.12 25.7 324.9 23.35 322.67 21 322.67 16.9L322.67 16.9Q322.67 7.8 335.07-0.15L335.07-0.15 335.07-11.85Q334.12-9.2 332.67-6.15L332.67-6.15Q329.32 0.7 323.37 0.7ZM327.17 16.8L327.17 16.8Q327.17 18.95 328.17 20.18 329.17 21.4 330.92 21.4L330.92 21.4Q335.17 21.4 335.17 14L335.17 14 335.17 5.05Q327.17 10.7 327.17 16.8ZM337.52-30.8L337.52-30.8Q336.12-30.8 335.12-31.8 334.12-32.8 334.12-34.2L334.12-34.2Q334.12-35.7 335.1-36.65 336.07-37.6 337.52-37.6L337.52-37.6Q339.02-37.6 339.97-36.65 340.92-35.7 340.92-34.2L340.92-34.2Q340.92-32.75 339.95-31.78 338.97-30.8 337.52-30.8ZM345.62 0.7L345.62 0.7Q344.97 0.7 344.57 0.1 344.17-0.5 344.17-1.45L344.17-1.45Q344.17-3.6 345.97-3.6L345.97-3.6Q347.57-3.6 349.52-5.58 351.47-7.55 354.07-11.95L354.07-11.95 359.42-21Q359.32-21.7 359.32-22.5L359.32-22.5Q359.32-25 360.24-26.2 361.17-27.4 361.77-27.65L361.77-27.65Q362.62-27.85 363.59-27.63 364.57-27.4 365.37-26.9 366.17-26.4 366.47-25.7L366.47-25.7Q366.27-24.8 365.72-23.55 365.17-22.3 363.97-20.2L363.97-20.2Q364.32-19.65 364.87-19.1 365.42-18.55 366.22-17.9L366.22-17.9 370.02-14.8Q372.07-13.15 373.09-11.38 374.12-9.6 374.12-7.4L374.12-7.4Q374.12-4.75 372.62-2.7L372.62-2.7Q372.87-2.15 372.87-1.4L372.87-1.4Q372.87-0.45 372.39 0.13 371.92 0.7 371.07 0.7L371.07 0.7Q370.27 0.7 369.52 0.6 368.77 0.5 367.87 0.35L367.87 0.35Q366.52 0.7 365.02 0.7L365.02 0.7Q363.27 0.7 361.52 0.18 359.77-0.35 357.87-1.5L357.87-1.5Q357.77-4.15 359.87-5.4L359.87-5.4Q362.62-3.6 365.07-3.6L365.07-3.6Q367.17-3.6 368.42-4.73 369.67-5.85 369.67-7.6L369.67-7.6Q369.67-9.8 367.27-11.7L367.27-11.7 363.47-14.7Q362.47-15.5 361.67-16.35L361.67-16.35 356.67-7.9Q353.92-3.25 351.39-1.28 348.87 0.7 345.62 0.7Z" opacity="1" transform="matrix(1,0,0,1,0,0)" fill="#000000" class="wordmark-text-0" data-fill-palette-color="quaternary" id="text-0"></path></svg></g></svg></g></svg></g></svg></g><g></g></svg></g><defs></defs></svg><rect width="395.52" height="101.41654531180643" fill="none" stroke="none" visibility="hidden"></rect></g></svg></g></svg>